# Blender v2.82 (sub 7) OBJ File: ''
# www.blender.org
mtllib Dome.mtl
o Dome.001
v 0.326598 5.351405 -0.977521
v 0.383498 5.439837 -0.948176
v 0.507187 5.351502 -0.878100
v 0.442037 5.555692 -0.877012
v 0.587265 5.465956 -0.789981
v 0.718348 5.351240 -0.646196
v 0.720485 5.536715 -0.567217
v 0.616572 5.593932 -0.697727
v 0.679047 5.686300 -0.479927
v 0.590425 5.723401 -0.606735
v 0.501724 5.737041 -0.691382
v 0.485768 5.663980 -0.782413
v 0.808815 5.351324 -0.426694
v 0.791825 5.501249 -0.406703
v 0.838605 5.351716 -0.228304
v 0.818920 5.488552 -0.230739
v 0.777274 5.589558 -0.232108
v 0.747542 5.636796 -0.342493
v 0.788488 5.500924 -0.054644
v 0.747425 5.636796 -0.122147
v 0.674081 5.686300 0.015520
v 0.712651 5.537416 0.106590
v 0.805271 5.351479 -0.029903
v 0.710343 5.351084 0.190644
v 0.575842 5.466025 0.333640
v 0.501547 5.351587 0.424667
v 0.429216 5.556803 0.420168
v 0.374648 5.442101 0.493219
v 0.321820 5.351718 0.524497
v 0.604775 5.594029 0.238560
v 0.470333 5.664580 0.324089
v 0.487297 5.737250 0.231468
v 0.579363 5.723259 0.145224
v 0.495627 5.837069 0.061801
v 0.402196 5.814432 0.213874
v 0.589541 5.810752 -0.092635
v 0.367465 5.929569 -0.004654
v 0.449177 5.925341 -0.230339
v 0.235184 6.006779 -0.226972
v 0.373250 5.929569 -0.453424
v 0.589541 5.810629 -0.371688
v 0.502206 5.837220 -0.523320
v 0.288285 5.896348 -0.628073
v 0.415823 5.815641 -0.673083
v 0.334022 5.742570 -0.805322
v 0.266426 5.631656 -0.912388
v 0.182259 5.821450 -0.771882
v 0.046189 5.896858 -0.689990
v 0.152241 5.954278 -0.568272
v 0.043370 5.983683 -0.510741
v -0.063424 5.957033 -0.566022
v -0.089488 5.821654 -0.768412
v 0.046623 5.701079 -0.901996
v -0.175582 5.632092 -0.907873
v 0.043613 5.516359 -0.997222
v -0.135543 5.497272 -0.984092
v -0.353843 5.556522 -0.872461
v -0.298269 5.442080 -0.945034
v -0.244414 5.351739 -0.975823
v -0.123687 5.351582 -1.014911
v 0.040691 5.351817 -1.030184
v -0.242208 5.743498 -0.799617
v -0.198532 5.896684 -0.622855
v -0.326692 5.815896 -0.666105
v -0.412936 5.738319 -0.684240
v -0.395696 5.663503 -0.776732
v 0.222069 5.497025 -0.986914
v 0.205322 5.351586 -1.016221
v -0.419030 5.837069 -0.513513
v -0.506001 5.723402 -0.598472
v -0.601822 5.686300 -0.469291
v -0.512607 5.810752 -0.358917
v -0.288706 5.929569 -0.446031
v -0.130501 5.993928 -0.403824
v 0.041581 6.019247 -0.390180
v 0.214937 5.993928 -0.407720
v 0.040428 6.034787 -0.224844
v 0.211042 5.993934 -0.046014
v 0.275758 5.896692 0.171442
v 0.142986 5.957040 0.115719
v 0.036798 5.983689 0.060725
v 0.039525 6.019252 -0.059390
v 0.030997 5.896857 0.238559
v -0.071416 5.954278 0.118568
v -0.206061 5.896348 0.179034
v -0.104127 5.817749 0.320898
v 0.164482 5.821654 0.315939
v 0.029531 5.699337 0.450074
v -0.188262 5.628884 0.461421
v -0.253874 5.742570 0.355297
v -0.362988 5.555979 0.426465
v -0.404225 5.664662 0.333049
v -0.419238 5.738139 0.242466
v -0.333318 5.815641 0.224177
v 0.033573 5.515043 0.545790
v -0.143768 5.494434 0.536011
v 0.037451 5.351801 0.579205
v -0.126758 5.351582 0.565444
v -0.247988 5.351385 0.526765
v -0.304888 5.440891 0.497421
v 0.250529 5.632092 0.455378
v 0.211829 5.496913 0.532232
v 0.201322 5.351572 0.563693
v 0.316570 5.743487 0.346844
v -0.428576 5.351500 0.427345
v -0.507903 5.466142 0.339582
v -0.639450 5.351222 0.195577
v -0.642169 5.537473 0.116321
v -0.536448 5.594366 0.247691
v -0.601822 5.686300 0.028513
v -0.508699 5.723401 0.157459
v -0.731372 5.351324 -0.024616
v -0.715534 5.501249 -0.045154
v -0.762041 5.351716 -0.223423
v -0.743655 5.488552 -0.221604
v -0.702237 5.589558 -0.220344
v -0.672602 5.636796 -0.110005
v -0.421039 5.837220 0.073779
v -0.290934 5.929569 0.004429
v -0.512607 5.810628 -0.079864
v -0.371512 5.925341 -0.220865
v -0.154850 6.006779 -0.222965
v -0.133518 5.993928 -0.041701
v -0.600808 5.742756 -0.219390
v -0.672602 5.636796 -0.330407
v -0.715533 5.500924 -0.398797
v -0.639696 5.537542 -0.560031
v -0.530360 5.594452 -0.691307
v -0.500611 5.466173 -0.785999
v -0.635909 5.351090 -0.643382
v -0.424639 5.351605 -0.876230
v -0.731244 5.351478 -0.423029
v 0.675170 5.742729 -0.233382
v 0.201322 5.351572 0.563693
v 0.039305 5.352409 -0.225378
v 0.321820 5.351718 0.524497
v 0.037451 5.351801 0.579205
v -0.126758 5.351582 0.565444
v -0.247988 5.351385 0.526765
v -0.428576 5.351500 0.427345
v -0.639450 5.351222 0.195577
v -0.731372 5.351324 -0.024616
v -0.762041 5.351716 -0.223423
v -0.731244 5.351478 -0.423029
v -0.635909 5.351090 -0.643382
v -0.424639 5.351605 -0.876230
v -0.244414 5.351739 -0.975823
v -0.123687 5.351582 -1.014911
v 0.040691 5.351817 -1.030184
v 0.205322 5.351586 -1.016221
v 0.326598 5.351405 -0.977521
v 0.507187 5.351502 -0.878100
v 0.718348 5.351240 -0.646196
v 0.808815 5.351324 -0.426694
v 0.838605 5.351716 -0.228304
v 0.805271 5.351479 -0.029903
v 0.710343 5.351084 0.190644
v 0.501547 5.351587 0.424667
vt 0.599673 0.570109
vt 0.617549 0.542144
vt 0.665579 0.577044
vt 0.646768 0.510508
vt 0.703230 0.541594
vt 0.749221 0.569132
vt 0.760036 0.507835
vt 0.715418 0.502301
vt 0.761345 0.463595
vt 0.720848 0.464681
vt 0.690724 0.464128
vt 0.672419 0.484187
vt 0.815821 0.550386
vt 0.808831 0.499081
vt 0.877662 0.512832
vt 0.857228 0.476579
vt 0.836252 0.452760
vt 0.802653 0.459311
vt 0.892417 0.431115
vt 0.846724 0.420447
vt 0.854047 0.377702
vt 0.904584 0.375813
vt 0.940924 0.453804
vt 0.974101 0.366952
vt 0.937265 0.296320
vt 0.973852 0.251344
vt 0.901279 0.249331
vt 0.927144 0.211729
vt 0.946945 0.177676
vt 0.896595 0.323396
vt 0.872650 0.281184
vt 0.851055 0.302845
vt 0.854105 0.334772
vt 0.813241 0.333331
vt 0.823427 0.292411
vt 0.806101 0.375780
vt 0.773713 0.323092
vt 0.752648 0.371122
vt 0.714930 0.337282
vt 0.704977 0.394097
vt 0.759270 0.421360
vt 0.717645 0.429285
vt 0.664030 0.410642
vt 0.678657 0.441345
vt 0.641996 0.458549
vt 0.607288 0.481700
vt 0.621702 0.423967
vt 0.612637 0.385847
vt 0.650850 0.379123
vt 0.641801 0.354182
vt 0.615247 0.348126
vt 0.571591 0.382646
vt 0.567453 0.437237
vt 0.511705 0.407934
vt 0.531494 0.481869
vt 0.486071 0.447523
vt 0.467282 0.372594
vt 0.442355 0.410953
vt 0.422957 0.446074
vt 0.452344 0.486490
vt 0.498603 0.526991
vt 0.530432 0.367819
vt 0.579836 0.338833
vt 0.544292 0.327854
vt 0.516332 0.318037
vt 0.494846 0.340309
vt 0.576466 0.515574
vt 0.551967 0.554651
vt 0.553079 0.286368
vt 0.512088 0.286181
vt 0.510322 0.242652
vt 0.558741 0.242686
vt 0.593075 0.296001
vt 0.628949 0.312660
vt 0.659890 0.334798
vt 0.685142 0.362122
vt 0.683593 0.309268
vt 0.738235 0.306108
vt 0.787877 0.280532
vt 0.752522 0.270656
vt 0.725819 0.264015
vt 0.707460 0.283774
vt 0.755914 0.231498
vt 0.716950 0.237982
vt 0.703807 0.203806
vt 0.748111 0.190175
vt 0.797373 0.236057
vt 0.804208 0.179030
vt 0.766503 0.127503
vt 0.727999 0.151368
vt 0.725772 0.088624
vt 0.696349 0.119659
vt 0.676246 0.142936
vt 0.688932 0.169648
vt 0.843832 0.135792
vt 0.802611 0.097032
vt 0.880681 0.095460
vt 0.834531 0.059726
vt 0.792692 0.037291
vt 0.760946 0.059656
vt 0.858324 0.212407
vt 0.885645 0.173730
vt 0.920548 0.138071
vt 0.838170 0.252378
vt 0.717808 0.017572
vt 0.676560 0.056830
vt 0.605270 0.025429
vt 0.599860 0.093819
vt 0.652459 0.098987
vt 0.600215 0.144270
vt 0.643871 0.141878
vt 0.522655 0.059483
vt 0.545069 0.107449
vt 0.462083 0.108558
vt 0.498004 0.141346
vt 0.522567 0.163739
vt 0.556593 0.153048
vt 0.648051 0.182590
vt 0.661619 0.221326
vt 0.604780 0.192338
vt 0.613214 0.245966
vt 0.652013 0.280969
vt 0.681988 0.255268
vt 0.559731 0.197536
vt 0.515042 0.198536
vt 0.468356 0.191158
vt 0.460059 0.246999
vt 0.470111 0.298763
vt 0.430437 0.326840
vt 0.392305 0.258672
vt 0.394960 0.371939
vt 0.418713 0.173330
vt 0.802908 0.418515
vt 0.280549 0.449968
vt 0.280549 0.718425
vt 0.238432 0.454292
vt 0.335474 0.456546
vt 0.388415 0.472591
vt 0.425246 0.493474
vt 0.477180 0.538112
vt 0.530328 0.628144
vt 0.545748 0.706420
vt 0.542427 0.773351
vt 0.518575 0.835975
vt 0.473003 0.901459
vt 0.388160 0.962549
vt 0.322666 0.982558
vt 0.280549 0.986883
vt 0.225623 0.980304
vt 0.172682 0.964259
vt 0.135852 0.943377
vt 0.083917 0.898738
vt 0.030770 0.808706
vt 0.015350 0.730430
vt 0.018670 0.663499
vt 0.042522 0.600875
vt 0.088094 0.535391
vt 0.172938 0.474301
vn 0.3481 0.0968 -0.9324
vn 0.4332 0.1962 -0.8797
vn 0.6294 0.1083 -0.7695
vn 0.4903 0.3625 -0.7926
vn 0.7144 0.1798 -0.6763
vn 0.8475 0.1648 -0.5046
vn 0.8568 0.2949 -0.4229
vn 0.7387 0.3726 -0.5617
vn 0.7749 0.5673 -0.2787
vn 0.6783 0.6098 -0.4099
vn 0.5465 0.6404 -0.5397
vn 0.5303 0.5070 -0.6796
vn 0.9491 0.1435 -0.2803
vn 0.9336 0.2582 -0.2485
vn 0.9902 0.1391 0.0105
vn 0.9704 0.2415 0.0088
vn 0.8997 0.4364 0.0043
vn 0.8464 0.5127 -0.1441
vn 0.9276 0.2622 0.2660
vn 0.8431 0.5135 0.1597
vn 0.7695 0.5653 0.2972
vn 0.8478 0.3049 0.4339
vn 0.9418 0.1546 0.2986
vn 0.8400 0.1848 0.5102
vn 0.7133 0.2084 0.6691
vn 0.6336 0.1450 0.7600
vn 0.4891 0.3844 0.7830
vn 0.4339 0.2253 0.8723
vn 0.3544 0.1241 0.9268
vn 0.7302 0.3854 0.5642
vn 0.5261 0.5204 0.6726
vn 0.5426 0.6404 0.5435
vn 0.6710 0.6076 0.4250
vn 0.5369 0.7872 0.3033
vn 0.4166 0.7534 0.5088
vn 0.6353 0.7591 0.1420
vn 0.4037 0.8861 0.2279
vn 0.4830 0.8756 0.0043
vn 0.2670 0.9637 0.0036
vn 0.4017 0.8896 -0.2174
vn 0.6335 0.7626 -0.1306
vn 0.5375 0.7936 -0.2851
vn 0.2738 0.8485 -0.4528
vn 0.4117 0.7609 -0.5015
vn 0.2999 0.6464 -0.7016
vn 0.2296 0.5090 -0.8296
vn 0.1320 0.7391 -0.6605
vn -0.0044 0.8226 -0.5686
vn 0.1408 0.9069 -0.3971
vn 0.0031 0.9437 -0.3307
vn -0.1486 0.9044 -0.3999
vn -0.1428 0.7378 -0.6597
vn -0.0076 0.5945 -0.8041
vn -0.2360 0.5155 -0.8237
vn -0.0081 0.3550 -0.9348
vn -0.1984 0.3292 -0.9232
vn -0.4886 0.3799 -0.7854
vn -0.4333 0.2187 -0.8743
vn -0.3527 0.1168 -0.9284
vn -0.1760 0.1900 -0.9659
vn -0.0068 0.1955 -0.9807
vn -0.3025 0.6488 -0.6982
vn -0.2810 0.8443 -0.4563
vn -0.4108 0.7609 -0.5024
vn -0.5401 0.6418 -0.5443
vn -0.5253 0.5162 -0.6764
vn 0.1910 0.3182 -0.9286
vn 0.1685 0.1760 -0.9699
vn -0.5309 0.7943 -0.2955
vn -0.6660 0.6134 -0.4245
vn -0.7664 0.5712 -0.2939
vn -0.6270 0.7665 -0.1393
vn -0.3995 0.8886 -0.2256
vn -0.2374 0.9529 -0.1889
vn -0.0018 0.9856 -0.1692
vn 0.2337 0.9544 -0.1860
vn 0.0001 1.0000 0.0001
vn 0.2397 0.9520 0.1902
vn 0.2850 0.8395 0.4626
vn 0.1502 0.9022 0.4044
vn -0.0028 0.9433 0.3318
vn 0.0023 0.9856 0.1693
vn 0.0025 0.8165 0.5773
vn -0.1402 0.9070 0.3971
vn -0.2714 0.8475 0.4561
vn -0.1279 0.7344 0.6665
vn 0.1408 0.7352 0.6631
vn 0.0058 0.5955 0.8033
vn -0.2256 0.5087 0.8309
vn -0.2886 0.6465 0.7063
vn -0.4892 0.3633 0.7929
vn -0.5294 0.5084 0.6792
vn -0.5454 0.6429 0.5378
vn -0.4094 0.7629 0.5004
vn 0.0086 0.3585 0.9335
vn -0.1889 0.3200 0.9284
vn 0.0091 0.2000 0.9797
vn -0.1677 0.1797 0.9693
vn -0.3478 0.0971 0.9325
vn -0.4319 0.1980 0.8799
vn 0.2356 0.5181 0.8222
vn 0.1995 0.3342 0.9211
vn 0.1779 0.1959 0.9644
vn 0.3034 0.6486 0.6981
vn -0.6300 0.1085 0.7690
vn -0.7144 0.1807 0.6760
vn -0.8463 0.1640 0.5068
vn -0.8546 0.2946 0.4277
vn -0.7355 0.3767 0.5631
vn -0.7696 0.5701 0.2876
vn -0.6725 0.6134 0.4141
vn -0.9480 0.1394 0.2862
vn -0.9328 0.2538 0.2558
vn -0.9914 0.1306 -0.0010
vn -0.9719 0.2354 0.0002
vn -0.9004 0.4350 0.0002
vn -0.8458 0.5115 0.1514
vn -0.5334 0.7949 0.2891
vn -0.3989 0.8902 0.2199
vn -0.6279 0.7661 0.1373
vn -0.4795 0.8776 -0.0016
vn -0.2656 0.9641 -0.0020
vn -0.2339 0.9543 0.1861
vn -0.7232 0.6907 0.0003
vn -0.8451 0.5131 -0.1500
vn -0.9305 0.2583 -0.2596
vn -0.8469 0.3006 -0.4387
vn -0.7266 0.3836 -0.5700
vn -0.7096 0.2027 -0.6748
vn -0.8381 0.1782 -0.5156
vn -0.6302 0.1374 -0.7642
vn -0.9444 0.1463 -0.2945
vn 0.7286 0.6849 0.0031
vn 0.0009 -1.0000 -0.0012
vn 0.0009 -1.0000 -0.0014
vn 0.0006 -1.0000 -0.0011
vn -0.0013 -1.0000 -0.0008
vn 0.0016 -1.0000 -0.0007
vn 0.0018 -1.0000 -0.0007
vn 0.0017 -1.0000 -0.0002
vn 0.0014 -1.0000 -0.0006
vn 0.0012 -1.0000 -0.0010
vn 0.0009 -1.0000 -0.0021
vn 0.0007 -1.0000 0.0020
vn 0.0016 -1.0000 0.0001
vn -0.0010 -1.0000 0.0013
vn -0.0008 -1.0000 0.0012
vn 0.0014 -1.0000 0.0007
vn -0.0016 -1.0000 0.0007
vn -0.0017 -1.0000 0.0007
vn -0.0014 -1.0000 0.0003
vn -0.0012 -1.0000 0.0009
vn -0.0009 -1.0000 0.0021
vn -0.0008 -1.0000 -0.0017
vn -0.0007 -1.0000 -0.0021
vn -0.0016 -1.0000 -0.0002
g Dome.001_Dome.001_Default_OBJ.006
usemtl Default_OBJ.006
s 1
f 1/1/1 2/2/2 3/3/3
f 4/4/4 3/3/3 2/2/2
f 4/4/4 5/5/5 3/3/3
f 6/6/6 3/3/3 5/5/5
f 5/5/5 7/7/7 6/6/6
f 5/5/5 8/8/8 7/7/7
f 4/4/4 8/8/8 5/5/5
f 9/9/9 7/7/7 8/8/8
f 9/9/9 8/8/8 10/10/10
f 11/11/11 10/10/10 8/8/8
f 11/11/11 8/8/8 12/12/12
f 4/4/4 12/12/12 8/8/8
f 7/7/7 13/13/13 6/6/6
f 7/7/7 14/14/14 13/13/13
f 9/9/9 14/14/14 7/7/7
f 15/15/15 13/13/13 14/14/14
f 15/15/15 14/14/14 16/16/16
f 17/17/17 16/16/16 14/14/14
f 17/17/17 14/14/14 18/18/18
f 9/9/9 18/18/18 14/14/14
f 17/17/17 19/19/19 16/16/16
f 15/15/15 16/16/16 19/19/19
f 17/17/17 20/20/20 19/19/19
f 21/21/21 19/19/19 20/20/20
f 21/21/21 22/22/22 19/19/19
f 23/23/23 19/19/19 22/22/22
f 15/15/15 19/19/19 23/23/23
f 23/23/23 22/22/22 24/24/24
f 22/22/22 25/25/25 24/24/24
f 24/24/24 25/25/25 26/26/26
f 27/27/27 26/26/26 25/25/25
f 27/27/27 28/28/28 26/26/26
f 29/29/29 26/26/26 28/28/28
f 27/27/27 25/25/25 30/30/30
f 22/22/22 30/30/30 25/25/25
f 21/21/21 30/30/30 22/22/22
f 27/27/27 30/30/30 31/31/31
f 32/32/32 31/31/31 30/30/30
f 32/32/32 30/30/30 33/33/33
f 21/21/21 33/33/33 30/30/30
f 32/32/32 33/33/33 34/34/34
f 21/21/21 34/34/34 33/33/33
f 32/32/32 34/34/34 35/35/35
f 21/21/21 36/36/36 34/34/34
f 37/37/37 34/34/34 36/36/36
f 37/37/37 36/36/36 38/38/38
f 39/39/39 37/37/37 38/38/38
f 40/40/40 39/39/39 38/38/38
f 41/41/41 40/40/40 38/38/38
f 36/36/36 41/41/41 38/38/38
f 41/41/41 42/42/42 40/40/40
f 43/43/43 40/40/40 42/42/42
f 43/43/43 42/42/42 44/44/44
f 43/43/43 44/44/44 45/45/45
f 11/11/11 45/45/45 44/44/44
f 11/11/11 44/44/44 42/42/42
f 11/11/11 12/12/12 45/45/45
f 4/4/4 45/45/45 12/12/12
f 4/4/4 46/46/46 45/45/45
f 47/47/47 45/45/45 46/46/46
f 43/43/43 45/45/45 47/47/47
f 43/43/43 47/47/47 48/48/48
f 43/43/43 48/48/48 49/49/49
f 50/50/50 49/49/49 48/48/48
f 50/50/50 48/48/48 51/51/51
f 52/52/52 48/48/48 47/47/47
f 52/52/52 47/47/47 53/53/53
f 47/47/47 46/46/46 53/53/53
f 54/54/54 52/52/52 53/53/53
f 55/55/55 54/54/54 53/53/53
f 46/46/46 55/55/55 53/53/53
f 55/55/55 56/56/56 54/54/54
f 57/57/57 54/54/54 56/56/56
f 57/57/57 56/56/56 58/58/58
f 59/59/59 58/58/58 56/56/56
f 59/59/59 56/56/56 60/60/60
f 61/61/61 56/56/56 55/55/55
f 61/61/61 60/60/60 56/56/56
f 54/54/54 62/62/62 52/52/52
f 57/57/57 62/62/62 54/54/54
f 63/63/63 52/52/52 62/62/62
f 63/63/63 48/48/48 52/52/52
f 63/63/63 51/51/51 48/48/48
f 63/63/63 62/62/62 64/64/64
f 65/65/65 64/64/64 62/62/62
f 65/65/65 62/62/62 66/66/66
f 57/57/57 66/66/66 62/62/62
f 61/61/61 55/55/55 67/67/67
f 61/61/61 67/67/67 68/68/68
f 1/1/1 68/68/68 67/67/67
f 1/1/1 67/67/67 2/2/2
f 46/46/46 67/67/67 55/55/55
f 4/4/4 67/67/67 46/46/46
f 4/4/4 2/2/2 67/67/67
f 65/65/65 69/69/69 64/64/64
f 63/63/63 64/64/64 69/69/69
f 65/65/65 70/70/70 69/69/69
f 71/71/71 69/69/69 70/70/70
f 71/71/71 72/72/72 69/69/69
f 73/73/73 69/69/69 72/72/72
f 63/63/63 69/69/69 73/73/73
f 63/63/63 73/73/73 74/74/74
f 63/63/63 74/74/74 51/51/51
f 50/50/50 51/51/51 74/74/74
f 50/50/50 74/74/74 75/75/75
f 50/50/50 75/75/75 76/76/76
f 50/50/50 76/76/76 49/49/49
f 77/77/77 76/76/76 75/75/75
f 77/77/77 75/75/75 74/74/74
f 77/77/77 39/39/39 76/76/76
f 40/40/40 76/76/76 39/39/39
f 43/43/43 76/76/76 40/40/40
f 43/43/43 49/49/49 76/76/76
f 77/77/77 78/78/78 39/39/39
f 39/39/39 78/78/78 37/37/37
f 79/79/79 37/37/37 78/78/78
f 79/79/79 78/78/78 80/80/80
f 81/81/81 80/80/80 78/78/78
f 81/81/81 78/78/78 82/82/82
f 77/77/77 82/82/82 78/78/78
f 79/79/79 34/34/34 37/37/37
f 79/79/79 35/35/35 34/34/34
f 81/81/81 83/83/83 80/80/80
f 79/79/79 80/80/80 83/83/83
f 81/81/81 84/84/84 83/83/83
f 85/85/85 83/83/83 84/84/84
f 85/85/85 86/86/86 83/83/83
f 87/87/87 83/83/83 86/86/86
f 79/79/79 83/83/83 87/87/87
f 87/87/87 86/86/86 88/88/88
f 86/86/86 89/89/89 88/88/88
f 86/86/86 90/90/90 89/89/89
f 85/85/85 90/90/90 86/86/86
f 91/91/91 89/89/89 90/90/90
f 91/91/91 90/90/90 92/92/92
f 93/93/93 92/92/92 90/90/90
f 93/93/93 90/90/90 94/94/94
f 85/85/85 94/94/94 90/90/90
f 89/89/89 95/95/95 88/88/88
f 89/89/89 96/96/96 95/95/95
f 91/91/91 96/96/96 89/89/89
f 97/97/97 95/95/95 96/96/96
f 97/97/97 96/96/96 98/98/98
f 99/99/99 98/98/98 96/96/96
f 99/99/99 96/96/96 100/100/100
f 91/91/91 100/100/100 96/96/96
f 95/95/95 101/101/101 88/88/88
f 101/101/101 87/87/87 88/88/88
f 95/95/95 102/102/102 101/101/101
f 97/97/97 102/102/102 95/95/95
f 27/27/27 101/101/101 102/102/102
f 27/27/27 102/102/102 28/28/28
f 29/29/29 28/28/28 102/102/102
f 29/29/29 102/102/102 103/103/103
f 97/97/97 103/103/103 102/102/102
f 27/27/27 104/104/104 101/101/101
f 101/101/101 104/104/104 87/87/87
f 79/79/79 87/87/87 104/104/104
f 79/79/79 104/104/104 35/35/35
f 32/32/32 35/35/35 104/104/104
f 32/32/32 104/104/104 31/31/31
f 27/27/27 31/31/31 104/104/104
f 99/99/99 100/100/100 105/105/105
f 91/91/91 105/105/105 100/100/100
f 91/91/91 106/106/106 105/105/105
f 107/107/107 105/105/105 106/106/106
f 106/106/106 108/108/108 107/107/107
f 106/106/106 109/109/109 108/108/108
f 91/91/91 109/109/109 106/106/106
f 110/110/110 108/108/108 109/109/109
f 110/110/110 109/109/109 111/111/111
f 93/93/93 111/111/111 109/109/109
f 93/93/93 109/109/109 92/92/92
f 91/91/91 92/92/92 109/109/109
f 108/108/108 112/112/112 107/107/107
f 108/108/108 113/113/113 112/112/112
f 110/110/110 113/113/113 108/108/108
f 114/114/114 112/112/112 113/113/113
f 114/114/114 113/113/113 115/115/115
f 116/116/116 115/115/115 113/113/113
f 116/116/116 113/113/113 117/117/117
f 110/110/110 117/117/117 113/113/113
f 93/93/93 118/118/118 111/111/111
f 110/110/110 111/111/111 118/118/118
f 93/93/93 94/94/94 118/118/118
f 85/85/85 118/118/118 94/94/94
f 85/85/85 119/119/119 118/118/118
f 120/120/120 118/118/118 119/119/119
f 110/110/110 118/118/118 120/120/120
f 120/120/120 119/119/119 121/121/121
f 119/119/119 122/122/122 121/121/121
f 119/119/119 123/123/123 122/122/122
f 85/85/85 123/123/123 119/119/119
f 77/77/77 122/122/122 123/123/123
f 77/77/77 123/123/123 82/82/82
f 81/81/81 82/82/82 123/123/123
f 81/81/81 123/123/123 84/84/84
f 85/85/85 84/84/84 123/123/123
f 122/122/122 73/73/73 121/121/121
f 122/122/122 74/74/74 73/73/73
f 77/77/77 74/74/74 122/122/122
f 73/73/73 72/72/72 121/121/121
f 72/72/72 120/120/120 121/121/121
f 72/72/72 124/124/124 120/120/120
f 110/110/110 120/120/120 124/124/124
f 110/110/110 124/124/124 117/117/117
f 116/116/116 117/117/117 124/124/124
f 116/116/116 124/124/124 125/125/125
f 71/71/71 124/124/124 72/72/72
f 71/71/71 125/125/125 124/124/124
f 116/116/116 125/125/125 126/126/126
f 71/71/71 126/126/126 125/125/125
f 116/116/116 126/126/126 115/115/115
f 71/71/71 127/127/127 126/126/126
f 71/71/71 128/128/128 127/127/127
f 127/127/127 128/128/128 129/129/129
f 57/57/57 129/129/129 128/128/128
f 57/57/57 128/128/128 66/66/66
f 65/65/65 66/66/66 128/128/128
f 65/65/65 128/128/128 70/70/70
f 71/71/71 70/70/70 128/128/128
f 127/127/127 129/129/129 130/130/130
f 130/130/130 129/129/129 131/131/131
f 57/57/57 131/131/131 129/129/129
f 57/57/57 58/58/58 131/131/131
f 59/59/59 131/131/131 58/58/58
f 132/132/132 127/127/127 130/130/130
f 132/132/132 126/126/126 127/127/127
f 114/114/114 126/126/126 132/132/132
f 114/114/114 115/115/115 126/126/126
f 11/11/11 42/42/42 10/10/10
f 9/9/9 10/10/10 42/42/42
f 9/9/9 42/42/42 41/41/41
f 9/9/9 41/41/41 133/133/133
f 9/9/9 133/133/133 18/18/18
f 17/17/17 18/18/18 133/133/133
f 17/17/17 133/133/133 20/20/20
f 36/36/36 133/133/133 41/41/41
f 21/21/21 133/133/133 36/36/36
f 21/21/21 20/20/20 133/133/133
f 134/134/134 135/135/135 136/136/136
f 137/137/137 135/135/135 134/134/134
f 138/138/138 135/135/135 137/137/137
f 139/139/139 135/135/135 138/138/138
f 140/140/140 135/135/135 139/139/139
f 141/141/141 135/135/135 140/140/140
f 142/142/142 135/135/135 141/141/141
f 143/143/143 135/135/135 142/142/142
f 144/144/144 135/135/135 143/143/143
f 145/145/144 135/135/135 144/144/144
f 146/146/145 135/135/135 145/145/144
f 147/147/146 135/135/135 146/146/145
f 148/148/147 135/135/135 147/147/146
f 149/149/148 135/135/135 148/148/147
f 150/150/149 135/135/135 149/149/148
f 151/151/150 135/135/135 150/150/149
f 152/152/151 135/135/135 151/151/150
f 153/153/152 135/135/135 152/152/151
f 154/154/152 135/135/135 153/153/152
f 155/155/153 135/135/135 154/154/152
f 156/156/154 135/135/135 155/155/153
f 157/157/155 135/135/135 156/156/154
f 158/158/156 135/135/135 157/157/155
f 136/136/136 135/135/135 158/158/156
