# Blender v2.82 (sub 7) OBJ File: ''
# www.blender.org
mtllib tree6.mtl
o Tree8.005
v 15.271019 4.010647 -7.431491
v 15.476938 4.490477 -7.472845
v 15.171881 4.339311 -7.451902
v 15.268273 4.619030 -7.828272
v 15.360698 4.804461 -7.620866
v 15.656386 4.997903 -7.495325
v 15.818980 4.900064 -7.156568
v 15.471357 4.135972 -7.368279
v 15.555404 4.575125 -7.224025
v 15.358807 4.778264 -6.997034
v 15.364884 4.352544 -6.946038
v 15.362116 4.548108 -6.630507
v 15.666645 5.003759 -6.819486
v 15.972573 4.902562 -6.787711
v 16.290422 5.135109 -6.952028
v 16.208099 5.009776 -7.237242
v 15.913735 5.215028 -7.439022
v 16.222937 5.154513 -7.449506
v 16.509680 4.934253 -7.229796
v 15.783417 4.865917 -6.549123
v 15.451628 4.871959 -6.678109
v 15.580498 4.596275 -6.439998
v 16.417995 4.888842 -7.606131
v 16.300491 4.926623 -6.647846
v 16.590456 4.912488 -6.861196
v 16.089531 4.620153 -6.631686
v 16.519117 4.574682 -6.690598
v 16.674042 4.751673 -6.976460
v 16.061665 4.376996 -6.774530
v 16.862230 4.532379 -6.754605
v 16.920317 4.566362 -7.176374
v 16.958830 4.186035 -6.970916
v 15.870536 4.503629 -6.462861
v 16.714420 4.084465 -6.699233
v 16.516075 4.336273 -6.611764
v 16.525814 4.016966 -6.371931
v 16.567345 3.840701 -7.243767
v 16.901958 4.428267 -7.394382
v 16.452311 3.734176 -6.960498
v 16.564978 3.710265 -6.596671
v 16.190336 3.611739 -6.780180
v 16.255718 3.690995 -6.428893
v 16.219543 4.081296 -6.302575
v 16.287485 4.337299 -6.461358
v 15.980621 4.129366 -6.444374
v 15.867706 4.047269 -6.632980
v 16.031082 3.794757 -6.457841
v 15.874290 3.728851 -6.798566
v 15.525640 3.927777 -6.662430
v 15.442739 3.787832 -7.025061
v 15.844900 3.505606 -7.143024
v 15.436481 3.388259 -7.203962
v 15.642953 3.355338 -7.573604
v 15.257228 3.537884 -7.572762
v 15.937610 3.600776 -7.565633
v 16.225899 3.478154 -7.159957
v 16.223509 3.316443 -7.642998
v 16.594015 3.500222 -7.380189
v 15.197062 3.751357 -7.277635
v 15.966612 3.478916 -6.944173
v 15.307894 4.089150 -6.910303
v 15.515153 4.258479 -6.656983
v 15.805673 4.256429 -6.635391
v 15.231426 3.853611 -7.607903
v 16.705439 3.836176 -7.519022
v 16.697218 3.694453 -7.848778
v 16.594875 3.453736 -7.649541
v 17.013971 3.937078 -7.833516
v 16.878771 4.011329 -8.129343
v 16.936554 4.324446 -7.988792
v 16.716846 4.370252 -8.138222
v 16.949602 4.663886 -8.094987
v 17.092901 4.627678 -7.755018
v 16.866524 4.949089 -7.827703
v 16.940512 4.740146 -7.518137
v 16.649902 4.956289 -7.544511
v 16.587772 4.915144 -8.020218
v 16.348824 4.685643 -8.009705
v 16.080112 4.875566 -7.962723
v 16.619099 4.582847 -8.179731
v 16.178541 5.165786 -7.753423
v 16.596794 3.993955 -8.232679
v 16.486835 3.726024 -7.933178
v 16.973392 4.300309 -7.727655
v 16.681297 4.142307 -7.410786
v 16.911190 4.050507 -7.564107
v 15.913735 5.215028 -7.439022
v 16.375813 3.499227 -7.861856
v 16.798018 4.892915 -7.281656
v 15.697554 5.079463 -8.078091
v 16.080112 4.875566 -7.962723
v 15.890785 4.743193 -8.189562
v 16.223488 4.645732 -8.231720
v 16.348824 4.685643 -8.009705
v 15.484695 4.821820 -8.231565
v 15.422425 5.042889 -7.790352
v 15.805591 5.112924 -7.786444
v 16.178541 5.165786 -7.753423
v 15.899448 4.365657 -8.317509
v 16.172916 4.289799 -8.233840
v 16.088364 4.076051 -8.471107
v 15.698791 4.001307 -8.474355
v 15.569260 4.153973 -8.142833
v 16.399988 4.430002 -8.051443
v 16.331507 3.995994 -8.068355
v 16.312393 3.887228 -8.258437
v 16.127371 3.663152 -7.921276
v 16.486835 3.726024 -7.933178
v 16.596794 3.993955 -8.232679
v 16.054956 3.599143 -8.180766
v 16.716846 4.370252 -8.138222
v 15.773105 3.612363 -7.999997
v 15.841604 3.815461 -7.727468
v 15.516000 3.928441 -8.039401
v 15.404455 3.799076 -7.788744
v 15.602816 3.547913 -7.774246
v 15.712368 3.669073 -8.328120
v 16.096933 3.788277 -8.439775
v 16.223509 3.316443 -7.642998
v 15.107201 3.891107 -7.940436
v 15.207313 4.079467 -8.150191
v 14.984580 4.331511 -7.933327
v 15.001990 4.103625 -7.617665
v 15.054630 4.453825 -7.695931
v 15.256831 4.361873 -8.153871
v 15.459015 4.469613 -8.086612
v 15.294350 4.840341 -7.929946
v 15.745531 4.501391 -8.189815
v 15.675478 4.306941 -8.020449
v 15.352881 4.034719 -7.221990
v 16.587772 4.915144 -8.020218
v 16.619099 4.582847 -8.179731
v 16.375813 3.499227 -7.861856
v 16.201191 3.898722 -7.365531
v 15.881016 2.664786 -7.589206
v 15.906272 3.905890 -7.582532
v 15.938534 2.661758 -7.243778
v 15.891457 3.903806 -7.138771
v 16.181797 2.680209 -7.368109
vt 0.312840 0.926476
vt 0.311977 0.945759
vt 0.312616 0.939672
vt 0.302707 0.950502
vt 0.307443 0.957362
vt 0.310411 0.964534
vt 0.332579 0.960907
vt 0.315546 0.931449
vt 0.322339 0.948859
vt 0.325856 0.956391
vt 0.326892 0.941079
vt 0.332545 0.947857
vt 0.335812 0.964751
vt 0.345508 0.960999
vt 0.358419 0.969621
vt 0.361872 0.964974
vt 0.314629 0.972584
vt 0.386331 0.970267
vt 0.375935 0.962094
vt 0.341825 0.959640
vt 0.333391 0.959864
vt 0.338545 0.949642
vt 0.398426 0.960316
vt 0.355330 0.961891
vt 0.366108 0.961340
vt 0.349438 0.950528
vt 0.361927 0.948806
vt 0.371412 0.955322
vt 0.348581 0.941513
vt 0.370473 0.947176
vt 0.381312 0.948366
vt 0.376623 0.931792
vt 0.344326 0.946208
vt 0.366643 0.927623
vt 0.360917 0.938410
vt 0.358289 0.925271
vt 0.379048 0.918129
vt 0.388129 0.943188
vt 0.365481 0.912495
vt 0.361857 0.911858
vt 0.352658 0.909000
vt 0.352787 0.912356
vt 0.351829 0.928773
vt 0.353895 0.939078
vt 0.346722 0.931133
vt 0.343023 0.927783
vt 0.347649 0.917203
vt 0.341614 0.914713
vt 0.334457 0.923330
vt 0.325689 0.918308
vt 0.333412 0.906079
vt 0.320058 0.902188
vt 0.305170 0.900535
vt 0.308353 0.907574
vt 0.295050 0.910747
vt 0.360523 0.902235
vt 0.409304 0.901140
vt 0.385591 0.905205
vt 0.316460 0.916436
vt 0.343607 0.904055
vt 0.326501 0.930464
vt 0.334654 0.936204
vt 0.341551 0.935948
vt 0.307769 0.920378
vt 0.392185 0.919603
vt 0.404414 0.915175
vt 0.397982 0.904799
vt 0.399278 0.923762
vt 0.407798 0.927518
vt 0.404867 0.938703
vt 0.410928 0.941338
vt 0.404858 0.951897
vt 0.396737 0.950563
vt 0.398583 0.962566
vt 0.390821 0.954785
vt 0.391726 0.962850
vt 0.408122 0.961283
vt 0.415610 0.952719
vt 0.412952 0.958403
vt 0.412206 0.948865
vt 0.403868 0.969247
vt 0.414264 0.926813
vt 0.411214 0.916678
vt 0.397925 0.936976
vt 0.387880 0.931367
vt 0.392787 0.928014
vt 0.397936 0.970393
vt 0.411271 0.908051
vt 0.382288 0.960522
vt 0.289567 0.967559
vt 0.276616 0.960424
vt 0.282015 0.955635
vt 0.271758 0.952358
vt 0.265885 0.953786
vt 0.291615 0.958179
vt 0.301764 0.966202
vt 0.292538 0.968799
vt 0.270125 0.970759
vt 0.279700 0.942229
vt 0.271720 0.938293
vt 0.273672 0.929912
vt 0.282281 0.927125
vt 0.289333 0.933088
vt 0.263798 0.944768
vt 0.264060 0.926922
vt 0.266789 0.921776
vt 0.271277 0.912166
vt 0.257374 0.914822
vt 0.259591 0.927065
vt 0.274690 0.909697
vt 0.257688 0.942643
vt 0.286005 0.910747
vt 0.290702 0.919559
vt 0.292194 0.924260
vt 0.300664 0.918820
vt 0.297405 0.908556
vt 0.283267 0.913172
vt 0.273135 0.917794
vt 0.263311 0.901626
vt 0.300673 0.922541
vt 0.295642 0.930415
vt 0.302622 0.939417
vt 0.308784 0.930395
vt 0.307338 0.944490
vt 0.295437 0.941700
vt 0.293583 0.945457
vt 0.300177 0.958693
vt 0.285338 0.946909
vt 0.289331 0.938810
vt 0.319353 0.927912
vt 0.260687 0.961866
vt 0.261202 0.950159
vt 0.263366 0.909955
vt 0.344826 0.897142
vt 0.341624 0.875126
vt 0.341603 0.897228
vt 0.338056 0.874668
vt 0.335111 0.897136
vt 0.344895 0.875040
vn -0.7408 0.1241 0.6601
vn -0.7034 0.3729 0.6051
vn -0.4132 0.3595 0.8367
vn -0.8686 0.4893 -0.0782
vn -0.7465 0.2443 0.6189
vn -0.6634 0.5833 0.4687
vn -0.5192 0.8456 0.1242
vn -0.8823 0.4089 0.2329
vn -0.8330 0.3856 -0.3966
vn -0.8066 0.4286 -0.4071
vn -0.9882 0.0930 -0.1219
vn -0.9041 -0.0627 0.4227
vn -0.1481 0.9874 -0.0549
vn -0.0925 0.8891 0.4482
vn 0.0231 0.9921 0.1234
vn 0.1104 0.9917 0.0661
vn -0.2601 0.9154 0.3071
vn 0.5656 0.7919 0.2301
vn 0.3191 0.9470 -0.0372
vn 0.1671 0.6382 0.7515
vn -0.6497 0.6387 0.4122
vn -0.2857 -0.0025 0.9583
vn 0.2152 0.9380 -0.2716
vn 0.1092 0.4850 0.8677
vn 0.7223 0.5762 0.3826
vn 0.2728 -0.0475 0.9609
vn 0.2055 0.2557 0.9447
vn 0.6725 0.6380 0.3752
vn 0.0158 0.1825 0.9831
vn 0.7255 0.3535 0.5905
vn 0.9455 0.2880 0.1520
vn 0.8825 -0.4685 0.0408
vn 0.3261 -0.2107 0.9215
vn 0.8217 -0.3660 0.4369
vn 0.3020 0.4409 0.8452
vn 0.5911 -0.0229 0.8063
vn 0.8208 -0.5393 0.1881
vn 0.9298 -0.3682 0.0007
vn 0.7005 -0.7136 0.0065
vn 0.7017 -0.6839 0.1998
vn 0.1026 -0.9508 0.2923
vn 0.0261 -0.7495 0.6615
vn -0.0861 0.1084 0.9904
vn -0.0136 0.8241 0.5663
vn -0.6766 0.3849 0.6277
vn -0.4889 -0.0761 0.8690
vn -0.5922 -0.4673 0.6565
vn -0.4070 -0.7091 0.5758
vn -0.4362 -0.5138 0.7388
vn -0.5736 -0.5334 0.6217
vn -0.0283 -0.9517 0.3058
vn -0.3107 -0.8121 0.4939
vn 0.1523 -0.9565 -0.2488
vn -0.7468 -0.5970 -0.2930
vn -0.0993 -0.9540 -0.2827
vn 0.1752 -0.9444 0.2784
vn -0.2775 -0.9585 -0.0655
vn 0.6266 -0.6257 0.4647
vn -0.9123 -0.1489 0.3814
vn -0.2201 -0.8831 0.4143
vn -0.9565 -0.1193 0.2661
vn -0.5378 -0.2591 0.8023
vn 0.1988 -0.2907 0.9359
vn -0.8867 -0.4622 -0.0140
vn 0.8436 -0.3635 0.3953
vn 0.5862 -0.7571 -0.2884
vn 0.6160 -0.7700 -0.1663
vn 0.8808 -0.4702 -0.0556
vn 0.6048 -0.3303 -0.7247
vn 0.8577 -0.0593 -0.5108
vn 0.1640 0.0647 -0.9843
vn 0.6502 0.2815 -0.7057
vn 0.9900 0.1403 0.0131
vn 0.4772 0.8646 -0.1571
vn 0.8373 0.4702 0.2791
vn 0.1065 0.9931 0.0486
vn -0.2069 0.8013 -0.5613
vn 0.0386 0.7347 -0.6773
vn 0.4206 0.6613 -0.6211
vn -0.1057 0.1583 -0.9817
vn 0.4108 0.7421 -0.5297
vn -0.0775 -0.2620 -0.9620
vn 0.0784 -0.5901 -0.8035
vn 0.9590 -0.1973 0.2032
vn 0.8737 -0.4117 0.2591
vn 0.7486 -0.1261 0.6509
vn -0.2601 0.9155 0.3071
vn 0.1485 -0.6337 -0.7592
vn 0.5980 0.7516 0.2784
vn 0.0094 0.8216 -0.5700
vn 0.1568 0.4154 -0.8960
vn 0.3891 0.3980 -0.8308
vn -0.4312 0.2602 -0.8639
vn -0.5657 0.8223 0.0612
vn -0.0696 0.9720 -0.2242
vn -0.2036 0.4187 -0.8850
vn 0.6047 0.1523 -0.7818
vn 0.3407 0.2603 -0.9034
vn -0.5419 0.0805 -0.8366
vn -0.4852 0.2846 -0.8268
vn 0.1153 0.0565 -0.9917
vn 0.2597 -0.2774 -0.9250
vn 0.9113 -0.2302 -0.3413
vn -0.1130 -0.8988 -0.4235
vn 0.3244 -0.9213 -0.2143
vn -0.4529 -0.8378 0.3050
vn -0.2869 -0.8827 -0.3722
vn -0.5253 -0.7282 -0.4402
vn -0.2069 -0.7169 -0.6658
vn 0.0372 -0.4424 -0.8961
vn -0.5384 -0.6588 -0.5255
vn 0.2898 -0.4861 -0.8245
vn -0.6607 -0.6635 -0.3511
vn -0.3907 -0.3081 -0.8674
vn -0.8984 0.2344 -0.3713
vn -0.9149 -0.2490 0.3178
vn -0.7462 0.5986 0.2912
vn -0.3167 0.4044 -0.8580
vn -0.3819 0.0329 -0.9236
vn -0.8970 0.3370 -0.2861
vn -0.3401 -0.1753 -0.9239
vn -0.3740 0.2474 -0.8938
vn -0.9640 0.2659 0.0016
vn -0.2070 0.8013 -0.5614
vn -0.1058 0.1583 -0.9817
vn 0.9990 -0.0426 0.0109
vn -0.5177 0.0151 -0.8554
vn -0.5792 -0.0399 -0.8142
vn -0.6289 -0.0087 0.7774
vn -0.5985 -0.0900 0.7961
vn 0.9881 -0.0154 -0.1530
usemtl Default_OBJ.014
s 1
f 1/1/1 2/2/2 3/3/3
f 2/2/2 4/4/4 3/3/3
f 5/5/5 4/4/4 2/2/2
f 6/6/6 5/5/5 2/2/2
f 6/6/6 2/2/2 7/7/7
f 1/1/1 8/8/8 2/2/2
f 2/2/2 8/8/8 9/9/9
f 7/7/7 2/2/2 9/9/9
f 7/7/7 9/9/9 10/10/10
f 9/9/9 11/11/11 10/10/10
f 12/12/12 10/10/10 11/11/11
f 13/13/13 7/7/7 10/10/10
f 7/7/7 13/13/13 14/14/14
f 15/15/15 7/7/7 14/14/14
f 7/7/7 15/15/15 16/16/16
f 16/16/16 17/17/17 7/7/7
f 6/6/6 7/7/7 17/17/17
f 18/18/18 17/17/17 16/16/16
f 16/16/16 15/15/15 19/19/19
f 14/14/14 13/13/13 20/20/20
f 10/10/10 12/12/12 21/21/21
f 20/20/20 13/13/13 21/21/21
f 21/21/21 13/13/13 10/10/10
f 20/20/20 21/21/21 22/22/22
f 21/21/21 12/12/12 22/22/22
f 23/23/23 18/18/18 16/16/16
f 16/16/16 19/19/19 23/23/23
f 24/24/24 15/15/15 14/14/14
f 15/15/15 25/25/25 19/19/19
f 15/15/15 24/24/24 25/25/25
f 14/14/14 26/26/26 24/24/24
f 26/26/26 14/14/14 20/20/20
f 26/26/26 27/27/27 24/24/24
f 24/24/24 27/27/27 25/25/25
f 25/25/25 27/27/27 28/28/28
f 19/19/19 25/25/25 28/28/28
f 29/29/29 27/27/27 26/26/26
f 30/30/30 28/28/28 27/27/27
f 28/28/28 30/30/30 31/31/31
f 30/30/30 32/32/32 31/31/31
f 29/29/29 26/26/26 33/33/33
f 33/33/33 26/26/26 20/20/20
f 33/33/33 20/20/20 22/22/22
f 32/32/32 30/30/30 34/34/34
f 35/35/35 34/34/34 30/30/30
f 27/27/27 35/35/35 30/30/30
f 29/29/29 35/35/35 27/27/27
f 35/35/35 36/36/36 34/34/34
f 37/37/37 32/32/32 34/34/34
f 32/32/32 37/37/37 38/38/38
f 38/38/38 31/31/31 32/32/32
f 34/34/34 39/39/39 37/37/37
f 40/40/40 39/39/39 34/34/34
f 34/34/34 36/36/36 40/40/40
f 40/40/40 41/41/41 39/39/39
f 40/40/40 42/42/42 41/41/41
f 36/36/36 42/42/42 40/40/40
f 42/42/42 36/36/36 43/43/43
f 43/43/43 36/36/36 44/44/44
f 35/35/35 44/44/44 36/36/36
f 29/29/29 44/44/44 35/35/35
f 29/29/29 45/45/45 44/44/44
f 44/44/44 45/45/45 43/43/43
f 29/29/29 46/46/46 45/45/45
f 45/45/45 46/46/46 47/47/47
f 47/47/47 43/43/43 45/45/45
f 42/42/42 43/43/43 47/47/47
f 46/46/46 48/48/48 47/47/47
f 48/48/48 41/41/41 42/42/42
f 42/42/42 47/47/47 48/48/48
f 49/49/49 48/48/48 46/46/46
f 48/48/48 49/49/49 50/50/50
f 50/50/50 51/51/51 48/48/48
f 52/52/52 51/51/51 50/50/50
f 51/51/51 52/52/52 53/53/53
f 54/54/54 53/53/53 52/52/52
f 51/51/51 53/53/53 55/55/55
f 55/55/55 56/56/56 51/51/51
f 55/55/55 57/57/57 56/56/56
f 56/56/56 57/57/57 58/58/58
f 59/59/59 54/54/54 52/52/52
f 50/50/50 59/59/59 52/52/52
f 56/56/56 58/58/58 37/37/37
f 60/60/60 51/51/51 56/56/56
f 51/51/51 60/60/60 48/48/48
f 37/37/37 39/39/39 56/56/56
f 56/56/56 39/39/39 41/41/41
f 41/41/41 48/48/48 60/60/60
f 41/41/41 60/60/60 56/56/56
f 61/61/61 50/50/50 49/49/49
f 61/61/61 49/49/49 62/62/62
f 63/63/63 62/62/62 49/49/49
f 33/33/33 62/62/62 63/63/63
f 29/29/29 33/33/33 63/63/63
f 59/59/59 64/64/64 54/54/54
f 62/62/62 33/33/33 22/22/22
f 65/65/65 37/37/37 58/58/58
f 65/65/65 58/58/58 66/66/66
f 66/66/66 58/58/58 67/67/67
f 68/68/68 65/65/65 66/66/66
f 68/68/68 66/66/66 69/69/69
f 68/68/68 69/69/69 70/70/70
f 70/70/70 69/69/69 71/71/71
f 71/71/71 72/72/72 70/70/70
f 73/73/73 70/70/70 72/72/72
f 73/73/73 72/72/72 74/74/74
f 73/73/73 74/74/74 75/75/75
f 74/74/74 76/76/76 75/75/75
f 77/77/77 76/76/76 74/74/74
f 74/74/74 72/72/72 77/77/77
f 76/76/76 77/77/77 23/23/23
f 77/77/77 78/78/78 23/23/23
f 78/78/78 79/79/79 23/23/23
f 72/72/72 80/80/80 77/77/77
f 80/80/80 72/72/72 71/71/71
f 81/81/81 23/23/23 79/79/79
f 82/82/82 71/71/71 69/69/69
f 69/69/69 66/66/66 82/82/82
f 66/66/66 83/83/83 82/82/82
f 75/75/75 38/38/38 73/73/73
f 73/73/73 38/38/38 84/84/84
f 84/84/84 38/38/38 85/85/85
f 85/85/85 86/86/86 84/84/84
f 85/85/85 38/38/38 37/37/37
f 65/65/65 86/86/86 85/85/85
f 85/85/85 37/37/37 65/65/65
f 83/83/83 66/66/66 67/67/67
f 81/81/81 18/18/18 23/23/23
f 81/81/81 87/87/87 18/18/18
f 86/86/86 68/68/68 84/84/84
f 86/86/86 65/65/65 68/68/68
f 70/70/70 84/84/84 68/68/68
f 73/73/73 84/84/84 70/70/70
f 67/67/67 88/88/88 83/83/83
f 67/67/67 57/57/57 88/88/88
f 67/67/67 58/58/58 57/57/57
f 75/75/75 31/31/31 38/38/38
f 89/89/89 31/31/31 75/75/75
f 31/31/31 89/89/89 28/28/28
f 76/76/76 89/89/89 75/75/75
f 28/28/28 89/89/89 19/19/19
f 76/76/76 19/19/19 89/89/89
f 23/23/23 19/19/19 76/76/76
f 90/90/90 91/91/79 92/92/91
f 93/93/92 92/92/91 91/91/79
f 94/94/78 93/93/92 91/91/79
f 95/95/93 90/90/90 92/92/91
f 95/95/93 96/96/94 90/90/90
f 90/90/90 97/97/95 91/91/79
f 97/97/95 90/90/90 96/96/94
f 6/6/6 97/97/95 96/96/94
f 91/91/79 97/97/95 98/98/81
f 97/97/95 17/17/17 98/98/81
f 6/6/6 17/17/17 97/97/95
f 93/93/92 99/99/96 92/92/91
f 100/100/97 99/99/96 93/93/92
f 99/99/96 100/100/97 101/101/98
f 99/99/96 101/101/98 102/102/99
f 99/99/96 102/102/99 103/103/100
f 93/93/92 104/104/101 100/100/97
f 94/94/78 104/104/101 93/93/92
f 104/104/101 105/105/102 100/100/97
f 105/105/102 106/106/103 100/100/97
f 100/100/97 106/106/103 101/101/98
f 105/105/102 107/107/104 106/106/103
f 105/105/102 108/108/83 107/107/104
f 109/109/82 108/108/83 105/105/102
f 109/109/82 105/105/102 104/104/101
f 107/107/104 110/110/105 106/106/103
f 104/104/101 111/111/71 109/109/82
f 110/110/105 107/107/104 112/112/106
f 113/113/107 112/112/106 107/107/104
f 114/114/108 112/112/106 113/113/107
f 103/103/100 102/102/99 114/114/108
f 113/113/107 115/115/109 114/114/108
f 113/113/107 116/116/110 115/115/109
f 114/114/108 102/102/99 117/117/111
f 110/110/105 112/112/106 117/117/111
f 117/117/111 112/112/106 114/114/108
f 102/102/99 118/118/112 117/117/111
f 110/110/105 117/117/111 118/118/112
f 106/106/103 110/110/105 118/118/112
f 107/107/104 119/119/57 113/113/107
f 114/114/108 115/115/109 120/120/113
f 114/114/108 120/120/113 121/121/114
f 121/121/114 120/120/113 122/122/115
f 120/120/113 115/115/109 64/64/64
f 64/64/64 123/123/116 120/120/113
f 120/120/113 123/123/116 122/122/115
f 115/115/109 116/116/110 54/54/54
f 115/115/109 54/54/54 64/64/64
f 55/55/55 116/116/110 113/113/107
f 55/55/55 113/113/107 119/119/57
f 121/121/114 103/103/100 114/114/108
f 101/101/98 118/118/112 102/102/99
f 116/116/110 53/53/53 54/54/54
f 55/55/55 53/53/53 116/116/110
f 124/124/117 122/122/115 123/123/116
f 123/123/116 3/3/3 124/124/117
f 3/3/3 4/4/4 124/124/117
f 124/124/117 4/4/4 122/122/115
f 122/122/115 4/4/4 125/125/118
f 125/125/118 121/121/114 122/122/115
f 125/125/118 103/103/100 121/121/114
f 4/4/4 126/126/119 125/125/118
f 126/126/119 103/103/100 125/125/118
f 95/95/93 126/126/119 4/4/4
f 95/95/93 4/4/4 127/127/120
f 128/128/121 126/126/119 95/95/93
f 129/129/122 126/126/119 128/128/121
f 129/129/122 103/103/100 126/126/119
f 1/1/1 3/3/3 123/123/116
f 99/99/96 129/129/122 128/128/121
f 103/103/100 129/129/122 99/99/96
f 4/4/4 5/5/5 127/127/120
f 127/127/120 96/96/94 95/95/93
f 96/96/94 127/127/120 5/5/5
f 6/6/6 96/96/94 5/5/5
f 95/95/93 92/92/91 128/128/121
f 99/99/96 128/128/121 92/92/91
f 130/130/123 1/1/1 59/59/59
f 59/59/59 50/50/50 130/130/123
f 50/50/50 61/61/61 130/130/123
f 11/11/11 130/130/123 61/61/61
f 11/11/11 9/9/9 130/130/123
f 11/11/11 61/61/61 62/62/62
f 62/62/62 12/12/12 11/11/11
f 12/12/12 62/62/62 22/22/22
f 1/1/1 64/64/64 59/59/59
f 123/123/116 64/64/64 1/1/1
f 8/8/8 130/130/123 9/9/9
f 130/130/123 8/8/8 1/1/1
f 131/131/124 132/132/125 94/94/78
f 132/132/125 104/104/101 94/94/78
f 132/132/125 111/111/71 104/104/101
f 119/119/57 107/107/104 133/133/88
f 108/108/83 133/133/88 107/107/104
f 106/106/103 118/118/112 101/101/98
f 46/46/46 29/29/29 63/63/63
f 49/49/49 46/46/46 63/63/63
f 134/134/126 135/135/127 136/136/128
f 137/137/129 136/136/128 135/135/127
f 137/137/129 134/134/126 138/138/130
f 137/137/129 138/138/130 136/136/128
f 137/137/129 139/139/131 134/134/126
f 134/134/126 139/139/131 135/135/127
